<svg xmlns="http://www.w3.org/2000/svg" viewBox="0 0 32 32" fill="none">
  <defs>
    <linearGradient id="fbg" x1="0" y1="0" x2="32" y2="32" gradientUnits="userSpaceOnUse">
      <stop stop-color="#1e3a8a"/>
      <stop offset="1" stop-color="#1d4ed8"/>
    </linearGradient>
  </defs>
  <circle cx="16" cy="16" r="16" fill="url(#fbg)"/>
  <!-- Star -->
  <path d="M16 3.5 L17.2 7.5 L21.5 7.5 L18.2 9.8 L19.4 13.8 L16 11.4 L12.6 13.8 L13.8 9.8 L10.5 7.5 L14.8 7.5 Z" fill="#fbbf24"/>
  <!-- Child head -->
  <circle cx="16" cy="18" r="3.5" fill="white"/>
  <!-- Body -->
  <path d="M16 21.5 L16 27" stroke="white" stroke-width="1.5" stroke-linecap="round"/>
  <!-- Arms up -->
  <path d="M16 23 L11 20" stroke="white" stroke-width="1.5" stroke-linecap="round"/>
  <path d="M16 23 L21 20" stroke="white" stroke-width="1.5" stroke-linecap="round"/>
  <!-- Legs -->
  <path d="M16 27 L13.5 30 M16 27 L18.5 30" stroke="white" stroke-width="1.5" stroke-linecap="round"/>
  <!-- Heart -->
  <path d="M14.5 24 C14.5 23.3 15 22.9 16 23.5 C17 22.9 17.5 23.3 17.5 24 C17.5 25 16 26.2 16 26.2 C16 26.2 14.5 25 14.5 24Z" fill="#fbbf24"/>
</svg>
